<svg width="66" height="66" viewBox="0 0 66 66" fill="none" xmlns="http://www.w3.org/2000/svg">
<path d="M3 63L13 53V20.5V13L3 3V63Z" fill="black"/>
<path d="M63 3L53 13V45.5V53L63 63V3Z" fill="black"/>
<path d="M45.5 20.5H20.5L23 23H35.5H43L45.5 20.5Z" fill="black"/>
<path d="M45.5 45.5L43 43H30.5H23L20.5 45.5H45.5Z" fill="black"/>
<path fill-rule="evenodd" clip-rule="evenodd" d="M2 0.585938L20.9142 19.5002H47.9142L25.4142 42.0002H30.0858L40.5 31.5859L52 43.0859V12.5859L64 0.585938V65.4144L45.0858 46.5002H18.0858L40.5858 24.0002H35.9142L25.5 34.4144L14 22.9144V53.4144L2 65.4144V0.585938ZM14 20.0859L25.5 31.5859L27.8358 29.2502L14 15.4144V20.0859ZM12 13.4144L4 5.41436V60.5859L12 52.5859V13.4144ZM22.9142 21.5002L23.4142 22.0002H42.5858L43.0858 21.5002H22.9142ZM25.4142 24.0002L29.25 27.8359L33.0858 24.0002H25.4142ZM52 50.5859V45.9144L40.5 34.4144L38.1642 36.7502L52 50.5859ZM36.75 38.1644L32.9142 42.0002H40.5858L36.75 38.1644ZM42.5858 44.0002H23.4142L22.9142 44.5002H43.0858L42.5858 44.0002ZM54 52.5859L62 60.5859V5.41437L54 13.4144V52.5859Z" fill="black"/>
</svg>
